<?xml version="1.0" encoding="UTF-8" standalone="no"?>
<!-- Created with Inkscape (http://www.inkscape.org/) -->

<svg
   xmlns:dc="http://purl.org/dc/elements/1.1/"
   xmlns:cc="http://creativecommons.org/ns#"
   xmlns:rdf="http://www.w3.org/1999/02/22-rdf-syntax-ns#"
   xmlns:svg="http://www.w3.org/2000/svg"
   xmlns="http://www.w3.org/2000/svg"
   xmlns:sodipodi="http://sodipodi.sourceforge.net/DTD/sodipodi-0.dtd"
   xmlns:inkscape="http://www.inkscape.org/namespaces/inkscape"
   width="191"
   height="385"
   id="svg2"
   version="1.1"
   inkscape:version="0.48.2 r9819"
   sodipodi:docname="LEGOLAND Alternate Installer Sidebar Image">
  <title
     id="title3054">Sidebar Image</title>
  <defs
     id="defs4" />
  <sodipodi:namedview
     id="base"
     pagecolor="#ffffff"
     bordercolor="#666666"
     borderopacity="1.0"
     inkscape:pageopacity="0.0"
     inkscape:pageshadow="2"
     inkscape:zoom="0.35"
     inkscape:cx="1265.9849"
     inkscape:cy="25.813444"
     inkscape:document-units="px"
     inkscape:current-layer="layer1"
     showgrid="false"
     inkscape:showpageshadow="false"
     inkscape:window-width="1366"
     inkscape:window-height="706"
     inkscape:window-x="-8"
     inkscape:window-y="-8"
     inkscape:window-maximized="0" />
  <metadata
     id="metadata7">
    <rdf:RDF>
      <cc:Work
         rdf:about="">
        <dc:format>image/svg+xml</dc:format>
        <dc:type
           rdf:resource="http://purl.org/dc/dcmitype/StillImage" />
        <dc:title>Sidebar Image</dc:title>
      </cc:Work>
    </rdf:RDF>
  </metadata>
  <g
     inkscape:label="Layer 1"
     inkscape:groupmode="layer"
     id="layer1"
     transform="translate(0,-667.36218)">
    <g
       id="g3048"
       inkscape:transform-center-x="448.57143"
       transform="translate(-173.18929,460.56132)">
      <path
         style="fill:#fefefe"
         d="m 173.18929,399.30086 0,-192.5 95.5,0 95.5,0 0,192.5 0,192.5 -95.5,0 -95.5,0 0,-192.5 z"
         id="path3052"
         inkscape:connector-curvature="0" />
      <path
         style="fill:#3f3fbf"
         d="m 173.18929,399.30086 0,-192.5 95.5,0 95.5,0 0,192.5 0,192.5 -95.5,0 -95.5,0 0,-192.5 z m 127,143.5 0,-12 -4.5,0 -4.5,0 0,6.5 0,6.5 -17,0 -17,0 0,5.5 0,5.5 21.5,0 21.5,0 0,-12 z m 0,-28 0,-12 -4.5,0 -4.5,0 0,6.5 0,6.5 -4,0 -4,0 0,-6.5 0,-6.5 -4.5,0 -4.5,0 0,6.5 0,6.5 -4,0 -4,0 0,-6.5 0,-6.5 -4.5,0 -4.5,0 0,12 0,12 21.5,0 21.5,0 0,-12 z m -10.10493,-19.95637 c 7.59158,-3.89378 11.46203,-10.64341 11.49364,-20.04363 0.038,-11.30534 -6.20885,-18.87978 -17.30643,-20.9844 -8.62831,-1.63632 -8.08228,-2.31086 -8.08228,9.9844 l 0,11 4.5,0 4.5,0 0,-4.5 c 0,-5.25374 1.42745,-5.80281 5.05296,-1.94363 1.71756,1.82827 2.40159,3.70742 2.40159,6.59767 0,3.38508 -0.60284,4.59376 -3.71259,7.44363 -3.29248,3.01733 -4.34223,3.40233 -9.27693,3.40233 -12.7661,0 -18.68275,-9.12669 -11.33895,-17.49081 l 3.12607,-3.56041 -1.70878,-4.47439 c -0.93983,-2.46091 -1.93964,-4.47439 -2.22179,-4.47439 -1.60118,0 -6.21104,3.62692 -8.06447,6.34493 -6.44352,9.44923 -4.09018,24.28078 4.91036,30.94676 6.41294,4.74954 18.3045,5.55931 25.7276,1.75194 z m 0.62771,-48.50411 c 8.43851,-4.9453 12.76509,-15.20683 10.56214,-25.05065 -2.38818,-10.67152 -9.97872,-17.21551 -21.14296,-18.22785 -18.05983,-1.63761 -30.31398,18.26083 -21.36798,34.69758 4.60509,8.46106 11.88083,12.37249 21.67641,11.65322 3.82924,-0.28117 7.26115,-1.3076 10.27239,-3.0723 z m -18.33296,-9.56515 c -6.68621,-4.07647 -7.7975,-13.52054 -2.24441,-19.07362 3.70281,-3.70281 7.45788,-4.54855 12.45798,-2.80584 4.74582,1.65409 8.59839,6.72172 8.59287,11.30297 -0.005,4.36528 -3.42602,9.46591 -7.48604,11.1623 -4.66332,1.94846 -7.3956,1.80707 -11.3204,-0.58581 z m 27.81018,-50.97437 0,-12 -4.5,0 -4.5,0 0,6.5 0,6.5 -17,0 -17,0 0,5.5 0,5.5 21.5,0 21.5,0 0,-12 z m 0,-19.85534 c 0,-5.74873 -0.0592,-5.87226 -3.25,-6.78467 l -3.25,-0.92933 -0.28917,-8.13644 -0.28917,-8.13644 3.53917,-1.27978 c 3.4969,-1.26449 3.53917,-1.34888 3.53917,-7.06485 l 0,-5.78508 -5.25,1.95667 c -2.8875,1.07617 -12.45,4.61456 -21.25,7.86308 l -16,5.90641 -0.29409,5.9833 c -0.29187,5.93793 -0.26912,5.99308 3,7.27289 1.81175,0.70928 4.64409,1.84066 6.29409,2.51418 5.55119,2.26597 31.9925,12.24611 32.75,12.36133 0.4125,0.0627 0.75,-2.52083 0.75,-5.74127 z m -22.75,-13.42916 c -3.4375,-1.15532 -6.25,-2.37219 -6.25,-2.70415 0,-0.33197 2.925,-1.55456 6.5,-2.71688 l 6.5,-2.1133 0,4.90941 c 0,2.70018 -0.1125,4.86804 -0.25,4.81746 -0.1375,-0.0506 -3.0625,-1.03722 -6.5,-2.19254 z m 22.75,-33.18647 0,-5.47098 -12.86,-0.27902 -12.86,-0.27903 12.86,-9.80297 12.86,-9.80296 0,-5.44704 0,-5.44703 -48.5,0 -48.5,0 0,5.48866 0,5.48865 40.00059,0.26135 40.00059,0.26134 -13.00059,9.88515 -13.00059,9.88515 0,5.36485 0,5.36485 21.5,0 21.5,0 0,-5.47097 z m 0,-54.81714 c 0,-8.6847 -0.35066,-10.98126 -2.25,-14.73562 -7.9309,-15.67679 -30.16873,-15.67119 -38.46097,0.01 -1.95882,3.70417 -2.28903,5.82065 -2.28903,14.67133 l 0,10.34272 21.5,0 21.5,0 0,-10.28811 z m -33.70582,-4.86851 c 2.00772,-14.96867 24.70582,-13.53751 24.70582,1.55775 l 0,2.59887 -12.63167,0 -12.63167,0 0.55752,-4.15662 z"
         id="path3050"
         inkscape:connector-curvature="0" />
    </g>
  </g>
</svg>
